<svg id="Layer_1" data-name="Layer 1" xmlns="http://www.w3.org/2000/svg" viewBox="0 0 38.48 33.01"><defs><style>.cls-1{fill:#fff;}</style></defs><title>eraser</title><path class="cls-1" d="M383.33,451.33a2,2,0,0,0-2.83,0l-2.95,2.94a9.52,9.52,0,0,0-1.77,2.35c-.19.51,1,2.28,1.77,3.06l6.36,6.36a11.29,11.29,0,0,0,3.28,2.13l10.51.1a1.18,1.18,0,0,0,.47-2.1Z" transform="translate(-375.76 -435.26)"/><path class="cls-1" d="M414.22,451.67a9.52,9.52,0,0,0-1.77-2.35l-12.27-12.27a9.52,9.52,0,0,0-2.35-1.77c-.51-.19-2.28,1-3.06,1.77L384.83,447a2,2,0,0,0,0,2.83l14.84,14.84a2,2,0,0,0,2.83,0l9.95-9.94C413.22,454,414.41,452.18,414.22,451.67Z" transform="translate(-375.76 -435.26)"/></svg>