<svg id="Layer_1" data-name="Layer 1" xmlns="http://www.w3.org/2000/svg" viewBox="0 0 35 33"><defs><style>.cls-1{fill:#fff;}.cls-2{fill:none;}</style></defs><title>hand</title><path class="cls-1" d="M485.35,454l2.79,4.32c.6.92,1.09.78,1.09-.32V442a2,2,0,0,1,2-2h.19a2,2,0,0,1,2,2v9h0V440a2,2,0,0,1,2-2h.19a2,2,0,0,1,2,2v11h0v-9a2,2,0,0,1,2-2h.2a2,2,0,0,1,2,2v9h0v-6a2,2,0,0,1,2-2H504a2,2,0,0,1,2,2v16.88a6.12,6.12,0,0,1-6.13,6.12h-6.54a7.17,7.17,0,0,1-6.18-3.53L482,455.72a1.4,1.4,0,0,1,.94-2.18l.73-.18C484.6,453.14,484.75,453.32,485.35,454Z" transform="translate(-478 -437)"/><rect class="cls-2" width="35" height="33"/></svg>